<?xml version="1.0" encoding="UTF-8"?>
<svg id="Layer_1" data-name="Layer 1" xmlns="http://www.w3.org/2000/svg" viewBox="0 0 300 300">
  <defs>
    <style>
      .cls-1, .cls-2 {
        fill: #fff;
      }

      .cls-1, .cls-3 {
        fill-rule: evenodd;
      }

      .cls-3, .cls-4 {
        fill: #face01;
      }
    </style>
  </defs>
  <g>
    <path d="M150,290c-77.196,0-140-62.804-140-140S72.804,10,150,10s140,62.804,140,140-62.804,140-140,140Z"/>
    <path class="cls-4" d="M150,20c34.724,0,67.37,13.522,91.924,38.076s38.076,57.2,38.076,91.924-13.522,67.37-38.076,91.924-57.2,38.076-91.924,38.076-67.37-13.522-91.924-38.076c-24.554-24.554-38.076-57.2-38.076-91.924s13.522-67.37,38.076-91.924c24.554-24.554,57.2-38.076,91.924-38.076M150,0C67.157,0,0,67.157,0,150s67.157,150,150,150,150-67.157,150-150S232.843,0,150,0h0Z"/>
  </g>
  <path class="cls-1" d="M191.676,194.664l-12.371-12.269c-1.548,4.775-5.43,8.711-10.656,10.111l-21.259,5.697c-8.162,2.187-16.583-2.619-18.757-10.732l-2.785-10.395-17.509,17.588c-.591.586-.911,1.358-.911,2.191v34.099h-11.072v-34.099c0-3.761,1.477-7.319,4.171-9.976l22.092-21.908-.923-3.447-31.631,8.407-.065.008c-.849.104-1.625.567-2.135,1.256l-18.814,33.229-9.049-6.348,18.761-33.16.029-.04c2.276-3.192,5.815-5.319,9.718-5.827l33.199-8.676c1.702-4.421,5.44-8.01,10.381-9.334l21.259-5.696c8.161-2.187,16.583,2.619,18.757,10.732l.238.887.53,1.987,38.623,10.101c3.901.521,7.439,2.646,9.715,5.824l.03.041,18.761,33.16-9.049,6.348-18.8-33.229c-.505-.681-1.282-1.14-2.146-1.257l-.059-.008-33.877-9.004.995,3.715,22.426,22.239.002.002c2.674,2.667,4.168,6.208,4.168,9.973v34.099h-11.072v-34.099c0-.833-.32-1.605-.911-2.191ZM168.849,176.709c.601,2.241-.751,4.576-3.029,5.186l-21.259,5.696c-2.278.611-4.616-.736-5.217-2.976l-7.44-27.769c-.601-2.241.751-4.576,3.029-5.186l21.259-5.697c2.278-.61,4.616.736,5.216,2.976l7.441,27.769Z"/>
  <path class="cls-3" d="M230.951,95.577l9.049,6.348-18.761,33.161-.03.041c-2.277,3.178-5.814,5.303-9.715,5.824l-35.149,9.186v.494c0,8.399-6.891,15.221-15.34,15.221h-22.009c-8.45,0-15.34-6.822-15.34-15.221v-.494l-35.148-9.185c-3.903-.507-7.442-2.634-9.718-5.827l-.029-.041-18.761-33.16,9.049-6.348,18.814,33.229c.51.688,1.351,1.16,2.2,1.264l33.606,8.932v-2.929l-23.143-22.95c-2.695-2.657-4.172-6.216-4.172-9.977v-34.099h11.072v34.099c0,.833.32,1.605.911,2.191l15.388,15.247c.673-7.786,7.279-13.909,15.284-13.909h22.009c8.005,0,14.611,6.123,15.284,13.908l15.374-15.246c.591-.586.911-1.358.911-2.191v-34.099h11.072v34.099c0,3.766-1.494,7.306-4.168,9.973l-.002.002-23.145,22.952v2.929l33.6-8.931c.864-.117,1.7-.584,2.205-1.265l18.8-33.229ZM165.287,150.644c0,2.32-1.91,4.225-4.269,4.225h-22.009c-2.358,0-4.268-1.905-4.268-4.225v-28.749c0-2.32,1.91-4.225,4.268-4.225h22.009c2.359,0,4.269,1.905,4.269,4.225v28.749Z"/>
  <path class="cls-2" d="M168.648,192.506l-2.829-10.611c2.278-.611,3.63-2.945,3.03-5.186l-7.441-27.769c-.601-2.241-2.938-3.586-5.217-2.976l-2.846-10.621c8.162-2.187,16.583,2.619,18.757,10.732l.238.888.626,2.017,38.527,10.07c3.901.521,7.439,2.646,9.715,5.824l.03.041,18.761,33.16-9.049,6.348-18.8-33.229c-.505-.681-1.282-1.14-2.146-1.257l-.059-.008-33.877-9.004.995,3.715,22.428,22.242c2.674,2.667,4.168,6.208,4.168,9.973v34.099h-11.072v-34.099c0-.833-.32-1.605-.911-2.191l-12.372-12.269c-1.548,4.775-5.43,8.711-10.656,10.111Z"/>
</svg>