<svg width="256" height="256" viewBox="0 0 256 256" fill="none" xmlns="http://www.w3.org/2000/svg">
<rect width="256" height="256" fill="#A1FEA0"/>
<g clip-path="url(#clip0_2152_453)">
<path d="M121.91 98.8124L117.224 115.571H203.547L196.594 140.434H110.271L105.585 157.192C104.332 161.669 106.835 165.298 111.175 165.298H209.948L209.918 165.402C217.064 153.849 222.41 141.228 225.392 128.004C228.363 114.821 228.716 102.234 226.801 90.7092H132.035C127.695 90.7092 123.163 94.3377 121.912 98.8146L121.91 98.8124Z" fill="black"/>
<path fill-rule="evenodd" clip-rule="evenodd" d="M63.479 167.667C60.0056 180.088 66.9503 190.155 78.9903 190.155H190.292C167.25 213.212 136.366 227.998 105.451 227.998C51.6541 227.998 18.1451 183.231 30.5984 127.999C43.0517 72.7688 96.754 28 150.551 28C181.462 28 205.676 42.7839 218.318 65.8378H131.14L131.145 65.84H113.761C104.447 65.84 94.812 71.8641 89.318 80.3418C89.2625 80.4274 89.2074 80.5132 89.1527 80.5993C87.6225 83.0104 86.4271 85.6146 85.6673 88.3313L63.479 167.667Z" fill="black"/>
</g>
<defs>
<clipPath id="clip0_2152_453">
<rect width="200" height="200" fill="white" transform="translate(28 28)"/>
</clipPath>
</defs>
</svg>
