<svg width="1498" height="1498" viewBox="0 0 1498 1498" fill="none" xmlns="http://www.w3.org/2000/svg">
<rect y="0.835938" width="1497.16" height="1497.16" rx="169" fill="#FF3B57"/>
<path d="M497.106 714.758C448.713 698.682 432.599 727.345 445.468 749.277L742.788 1293.27C746.732 1302.06 758.618 1302.08 762.598 1293.31L1061.02 692.492C1070.88 667.23 1065.54 651.352 1041.32 639.769C1000.08 620.044 952.929 624.329 918.516 630.73C864.752 640.73 830.43 650.989 782.849 668.449C776.236 670.875 735.065 688.174 725.685 692.365C716.305 696.557 651.528 726.851 603.753 727.903C555.979 728.955 533.944 726.995 497.106 714.758Z" fill="white"/>
<path d="M1050.79 540.422C1052.81 565.048 1052.91 587.291 1024.46 579.908C996.008 572.524 950.587 570.031 899.911 579.436C846.919 589.271 803.984 603.729 783.045 613.084C739.61 632.489 731.702 635.264 698.107 650.626C661.633 667.304 632.551 676.259 588.018 677.55C565.08 678.216 518.403 678.309 479.238 639.695C479.238 639.695 456.187 617.151 452.348 572.692C450.779 554.526 449.835 553.96 449.996 531.815C451.218 363.514 585.889 227.186 749.749 228.376C913.608 229.566 1035.96 359.388 1050.79 540.422Z" fill="white"/>
</svg>
