<svg width="115" height="115" viewBox="-2 -4 24 24" xmlns="http://www.w3.org/2000/svg">
<g>
<rect x="-2" y="-4" width="24" height="24" fill="rgb(15, 26, 31)"/>
<path d="M20.4543 8.03888C20.4729 9.71764 20.1215 11.3218 19.4311 12.8544C18.4453 15.0368 16.0819 16.8213 13.9237 14.9218C12.1636 13.3736 11.837 10.2306 9.19993 9.77049C5.71075 9.34769 5.62679 13.3923 3.34731 13.8492C0.806615 14.3653 -0.0361384 10.0938 0.00117909 8.15391C0.0384966 6.21401 0.554722 3.48759 2.76267 3.48759C5.30337 3.48759 5.47441 7.33318 8.69926 7.12489C11.893 6.90728 11.949 2.90624 14.0357 1.19329C15.8362 -0.286505 17.954 0.798469 19.0144 2.57982C19.9971 4.22749 20.4294 6.16116 20.4512 8.03888H20.4543Z" fill="#F6FEFD"/>
</g>
</svg>