<svg width="1273" height="1000" viewBox="0 0 1273 1000" fill="none" xmlns="http://www.w3.org/2000/svg">
<g clip-path="url(#clip0_597_960)">
<path d="M1060.61 182.117H1000V273.026H909.09V363.935H818.18V273.026H727.27V182.117H636.364V273.026H545.455V363.935H454.545V273.026H363.636V182.117H272.727V818.48H1090.91V182.117H1060.61ZM818.18 485.147V545.754H636.364V636.663H818.18V727.57H545.455V454.844H818.18V485.147Z" fill="#9F7AF8"/>
<path d="M181.818 91.2031V182.112H90.9092V909.38H181.818V182.112H272.727V91.2031H181.818Z" fill="#371D70"/>
<path d="M545.454 454.839V727.57H818.18V636.658H636.364V545.749H818.18V454.839H545.454Z" fill="#371D70"/>
<path d="M636.364 182.112H545.454V91.2031H636.364V182.112Z" fill="#371D70"/>
<path d="M545.454 182.112V273.021H454.545V182.112H545.454Z" fill="#371D70"/>
<path d="M909.09 91.2031V182.112H818.18V273.021H909.09V182.112H1000V91.2031H909.09Z" fill="#371D70"/>
<path d="M363.636 182.112H272.727V91.2031H363.636V182.112Z" fill="#CBBBFB"/>
<path d="M454.545 273.021H363.636V182.112H454.545V273.021Z" fill="#CBBBFB"/>
<path d="M545.454 273.021V363.93H454.545V273.021H545.454Z" fill="#CBBBFB"/>
<path d="M636.364 182.112V273.021H545.454V182.112H636.364Z" fill="#CBBBFB"/>
<path d="M727.27 182.112H636.364V91.2031H727.27V182.112Z" fill="#CBBBFB"/>
<path d="M818.18 273.021V182.112H727.27V273.021H818.18Z" fill="#CBBBFB"/>
<path d="M909.09 273.021H818.18V363.93H909.09V273.021Z" fill="#CBBBFB"/>
<path d="M1000 182.112V273.021H909.09V182.112H1000Z" fill="#CBBBFB"/>
<path d="M1090.91 182.112H1000V91.2031H1090.91V182.112Z" fill="#CBBBFB"/>
<path d="M1090.91 182.112V818.48H272.727V182.112H181.818V909.38H1181.82V182.112H1090.91Z" fill="#CBBBFB"/>
<path d="M181.818 90.909V0H363.636V90.909H181.818Z" fill="#170738"/>
<path d="M545.455 90.9092V181.818H363.636V90.9092H545.455Z" fill="#170738"/>
<path d="M727.27 90.909H545.455V0H727.27V90.909Z" fill="#170738"/>
<path d="M909.09 90.9092V181.818H727.27V90.9092H909.09Z" fill="#170738"/>
<path d="M1090.91 90.909H909.09V0H1090.91V90.909Z" fill="#170738"/>
<path d="M1181.82 181.818V90.9092H1090.91V181.818H1181.82Z" fill="#170738"/>
<path d="M1181.82 909.09V181.818H1272.73V909.09H1181.82Z" fill="#170738"/>
<path d="M90.9092 909.09H1181.82V1000H90.9092V909.09Z" fill="#170738"/>
<path d="M90.909 181.818V909.09H0V181.818H90.909Z" fill="#170738"/>
<path d="M90.9092 181.818H181.818V90.9092H90.9092V181.818Z" fill="#170738"/>
</g>
<defs>
<clipPath id="clip0_597_960">
<rect width="1272.73" height="1000" fill="white"/>
</clipPath>
</defs>
</svg>
