<svg xmlns="http://www.w3.org/2000/svg" xmlns:xlink="http://www.w3.org/1999/xlink" viewBox="0 -44 113 113">
    <path
        d="M 11.849 5.831 C 15.223 5.831 17.923 8.572 17.923 12 C 17.923 15.427 15.223 18.169 11.849 18.169 C 8.475 18.169 5.775 15.427 5.775 12 C 5.775 8.572 8.475 5.831 11.849 5.831 Z M 11.849 22.154 C 17.374 22.154 21.845 17.612 21.845 12 C 21.845 6.387 17.374 1.846 11.849 1.846 C 6.323 1.846 1.852 6.387 1.852 12 C 1.852 17.612 6.323 22.154 11.849 22.154 Z M 107.225 22.154 L 107.225 12.021 C 107.225 8.601 104.525 5.822 101.151 5.822 C 97.776 5.822 95.077 8.601 95.077 12.021 L 95.077 22.154 L 91.154 22.154 L 91.154 12.021 C 91.154 6.421 95.626 1.846 101.151 1.846 C 106.677 1.846 111.148 6.421 111.148 12.021 L 111.148 22.154 Z M 87.822 12.021 L 87.822 22.154 L 83.9 22.154 L 83.9 20.059 L 83.9 12.021 C 83.9 8.601 81.2 5.822 77.826 5.822 C 74.452 5.822 71.752 8.601 71.752 12.021 C 71.752 15.399 74.452 18.178 77.826 18.178 L 77.826 22.154 C 72.3 22.154 67.829 17.622 67.829 12.021 C 67.829 6.421 72.3 1.846 77.826 1.846 C 83.351 1.846 87.822 6.421 87.822 12.021 Z M 60.49 10.298 L 48.47 10.298 C 49.199 7.631 51.627 5.662 54.501 5.662 C 57.374 5.662 59.762 7.631 60.49 10.298 Z M 48.632 14.113 L 60.369 14.113 L 64.254 14.113 C 64.416 13.456 64.497 12.718 64.497 12.021 C 64.497 6.4 60.005 1.846 54.501 1.846 C 48.956 1.846 44.504 6.4 44.504 12.021 C 44.504 17.6 48.956 22.154 54.501 22.154 C 58.71 22.154 62.312 19.487 63.769 15.754 L 59.519 15.754 C 58.386 17.313 56.565 18.338 54.501 18.338 C 51.789 18.338 49.482 16.574 48.632 14.113 Z M 25.844 1.846 C 25.476 1.846 25.178 2.149 25.178 2.523 L 25.178 5.231 C 25.178 5.605 25.476 5.908 25.844 5.908 L 36.507 5.908 C 36.875 5.908 37.173 5.605 37.173 5.231 L 37.173 2.523 C 37.173 2.149 36.875 1.846 36.507 1.846 Z M 37.84 5.908 C 37.472 5.908 37.173 6.211 37.173 6.585 L 37.173 9.296 C 37.173 9.67 37.472 9.973 37.84 9.973 L 40.506 9.973 C 40.874 9.973 41.172 9.67 41.172 9.296 L 41.172 6.585 C 41.172 6.211 40.874 5.908 40.506 5.908 Z M 25.844 14.031 C 25.476 14.031 25.178 14.334 25.178 14.708 L 25.178 17.415 C 25.178 17.789 25.476 18.092 25.844 18.092 L 28.51 18.092 C 28.878 18.092 29.176 17.789 29.176 17.415 L 29.176 14.708 C 29.176 14.334 28.878 14.031 28.51 14.031 Z M 31.175 10.646 C 31.175 10.272 31.474 9.969 31.842 9.969 L 34.508 9.969 C 34.876 9.969 35.174 10.272 35.174 10.646 L 35.174 13.354 C 35.174 13.728 34.876 14.031 34.508 14.031 L 31.842 14.031 C 31.474 14.031 31.175 13.728 31.175 13.354 Z M 29.843 18.092 C 29.475 18.092 29.176 18.395 29.176 18.769 L 29.176 21.477 C 29.176 21.851 29.475 22.154 29.843 22.154 L 40.506 22.154 C 40.874 22.154 41.172 21.851 41.172 21.477 L 41.172 18.769 C 41.172 18.395 40.874 18.092 40.506 18.092 Z"
        fill="rgb(255, 255, 255)"></path>
</svg>