<svg width="154" height="154" viewBox="0 0 154 154" fill="none" xmlns="http://www.w3.org/2000/svg">
<path d="M154 77.4127C154 78.1934 153.989 78.9741 153.967 79.7548H153.877H116.515V78.0484H80.4686C80.4686 77.6915 80.4797 77.3346 80.4797 76.9888C80.4797 76.6431 80.4797 76.2751 80.4686 75.9293H116.515V74.2341H116.571H153.933C153.978 75.2936 154 76.3531 154 77.4127ZM79.8328 69.7283L115.11 65.3898L115.322 67.085L152.572 62.5012C152.216 60.6721 151.792 58.8653 151.312 57.092L114.641 61.6089L114.853 63.3042L79.409 67.665C79.5652 68.3565 79.7102 69.0479 79.8328 69.7506V69.7283ZM77.9926 62.9027L111.708 54.4822L112.121 56.1328L147.899 47.1993C147.163 45.4706 146.371 43.7642 145.524 42.1024L110.793 50.7794L111.206 52.43L77.2119 60.9286C77.4907 61.5866 77.7472 62.2446 77.9926 62.9138V62.9027ZM75.0036 56.512L106.522 44.6118L107.124 46.2067L140.471 33.615C139.39 32.0313 138.252 30.4922 137.048 28.9977L105.172 41.0317L105.775 42.6266L73.8772 54.6718C74.2675 55.274 74.6467 55.8875 75.0036 56.512ZM70.8659 50.601L98.7036 36.091L99.4843 37.6078L130.267 21.5587C128.85 20.1868 127.378 18.882 125.861 17.6217L96.9303 32.7005L97.711 34.2173L69.4048 48.9726C69.8956 49.508 70.3863 50.0433 70.8547 50.601H70.8659ZM64.1518 44.2215L89.3575 28.1947L90.272 29.6334L118.087 11.9448C116.336 10.8295 114.552 9.79229 112.712 8.82199L87.3165 24.9715L88.231 26.4102L62.3004 42.8943C62.9361 43.3181 63.5495 43.7642 64.1629 44.2215H64.1518ZM58.1961 40.4964L79.3198 23.1758L80.4016 24.4919L104.191 4.97422C102.172 4.20466 100.098 3.51318 98.001 2.91092L76.8996 20.2203L77.9815 21.5364L56.0882 39.4926C56.802 39.8049 57.5046 40.1395 58.1961 40.4964ZM50.311 37.4293L66.9958 20.8226L68.1892 22.0271L89.3909 0.959154C87.0934 0.579954 84.7625 0.30113 82.398 0.122682L64.3191 18.1124L65.5125 19.3169L47.8908 36.8494C48.705 37.0167 49.508 37.2063 50.311 37.4293ZM41.0875 36.0352L54.393 19.908L55.709 20.9899L73.0295 0C70.3975 0.122682 67.7988 0.3792 65.2448 0.758401L51.4486 17.4767L52.7646 18.5585L38.355 36.024C38.7565 36.0129 39.1692 36.0017 39.5707 36.0017C40.0837 36.0017 40.5856 36.0017 41.0875 36.024V36.0352ZM33.1131 36.5148L43.3627 20.6553L44.7903 21.581L57.1812 2.39789C54.3483 3.13398 51.5824 4.02622 48.8834 5.06344L40.1618 18.5697L41.5894 19.4954L30.2357 37.0724C31.1837 36.8494 32.1428 36.6598 33.1131 36.5036V36.5148ZM24.2577 38.9796L31.6298 25.1611L33.1243 25.9641L42.8831 7.68438C39.7491 9.21234 36.7378 10.941 33.8604 12.8594L28.2504 23.3654L29.7561 24.1685L21.0791 40.4295C22.1052 39.9053 23.1647 39.4257 24.2465 38.9907L24.2577 38.9796ZM17.9005 42.2251L21.0345 33.325L22.6405 33.8938L28.73 16.6067C25.6406 19.0604 22.7409 21.7371 20.053 24.6257L17.4321 32.0647L19.0381 32.6335L14.9338 44.2772C15.893 43.5523 16.8744 42.872 17.8893 42.2362L17.9005 42.2251ZM10.0823 48.5934L11.4652 42.1247L13.127 42.4816L15.9153 29.455C12.982 33.18 10.3834 37.1839 8.16396 41.4109L9.40194 41.6786L6.85907 52.3854C7.85168 51.0582 8.93352 49.7868 10.0823 48.5934ZM4.3385 56.1551V47.5897C2.26405 53.0658 0.79186 59.8802 0 66.5608C0.970307 62.8581 2.4425 59.3672 4.3385 56.1551ZM0.0557648 87.6399C0.86993 93.3391 2.29751 98.8375 4.28273 104.068V97.7445C2.45365 94.6217 1.01492 91.2312 0.0557648 87.6399ZM7.12674 101.971L9.34618 112.321L8.1082 112.589C10.3276 116.827 12.9263 120.82 15.8595 124.545L13.0713 111.518L11.4095 111.875L10.0042 105.328C8.98928 104.258 8.01897 103.143 7.12674 101.96V101.971ZM14.8557 109.667L18.9823 121.378L17.3763 121.946L19.9972 129.385C22.6851 132.274 25.5849 134.951 28.6742 137.404L22.5847 120.117L20.9787 120.686L17.8336 111.741C16.8187 111.095 15.826 110.414 14.8669 109.689L14.8557 109.667ZM21.0122 113.537L29.7115 129.843L28.2058 130.646L33.8158 141.152C36.6932 143.07 39.7045 144.799 42.8385 146.327L33.0797 128.047L31.574 128.85L24.1796 114.998C23.0978 114.563 22.0382 114.072 21.001 113.548L21.0122 113.537ZM30.1687 116.905L41.5336 134.505L40.106 135.43L48.8276 148.937C51.5266 149.974 54.2926 150.866 57.1254 151.602L44.7345 132.419L43.3069 133.345L33.0462 117.463C32.0759 117.307 31.1056 117.117 30.1576 116.894L30.1687 116.905ZM38.2881 117.976L52.6977 135.441L51.3817 136.523L65.1779 153.242C67.7319 153.621 70.3305 153.877 72.9626 154L55.6421 132.999L54.326 134.081L41.0206 117.954C40.541 117.976 40.0503 117.976 39.5595 117.976C39.1357 117.976 38.7008 117.976 38.2769 117.954L38.2881 117.976ZM47.8462 117.151L65.4567 134.672L64.2633 135.876L82.3423 153.866C84.7067 153.688 87.0377 153.409 89.3352 153.03L68.1445 131.951L66.94 133.166L50.2664 116.571C49.4745 116.783 48.6603 116.983 47.8462 117.151ZM56.0547 114.53L77.9257 132.475L76.8439 133.791L97.9452 151.1C100.042 150.498 102.116 149.806 104.135 149.037L80.3347 129.519L79.2529 130.835L58.1515 113.526C57.46 113.883 56.7574 114.217 56.0436 114.53H56.0547ZM62.2558 111.117L88.1529 127.59L87.2384 129.029L112.634 145.178C114.474 144.208 116.27 143.159 118.009 142.055L90.1939 124.367L89.2794 125.805L64.1072 109.801C63.4938 110.258 62.8804 110.704 62.2446 111.128L62.2558 111.117ZM69.3937 105.05L97.6664 119.783L96.8857 121.3L125.816 136.378C127.333 135.118 128.805 133.813 130.222 132.441L99.4397 116.392L98.659 117.909L70.8547 103.421C70.3863 103.979 69.9067 104.525 69.4048 105.05H69.3937ZM73.866 99.3394L105.719 111.373L105.117 112.968L136.992 125.002C138.185 123.508 139.323 121.969 140.416 120.385L107.068 107.793L106.466 109.388L74.9925 97.4991C74.6356 98.1237 74.2564 98.7371 73.866 99.3394ZM77.2008 93.0937L111.139 101.57L110.727 103.221L145.457 111.898C146.316 110.236 147.107 108.529 147.844 106.801L112.065 97.8672L111.652 99.5178L77.9815 91.1085C77.7361 91.7777 77.4684 92.4357 77.2008 93.0937ZM79.409 86.3573L114.797 90.707L114.585 92.4022L151.256 96.9192C151.736 95.1347 152.16 93.3279 152.517 91.51L115.266 86.9261L115.054 88.6214L79.8328 84.2829C79.7102 84.9855 79.5652 85.677 79.409 86.3685V86.3573Z" fill="#141414"/>
</svg>
